HIERARCHY
ROOT Hips
{
	OFFSET 0.000000 0.000000 0.000000
	CHANNELS 6 Xposition Yposition Zposition Xrotation Yrotation Zrotation
	JOINT LeftUpLeg_virtual
	{
		OFFSET 0.000000 0.000000 0.000000
		CHANNELS 3 Xrotation Yrotation Zrotation
		JOINT LeftUpLeg
		{
			OFFSET 10.205400 -3.823500 0.155100
			CHANNELS 3 Xrotation Yrotation Zrotation
			JOINT LeftLeg
			{
				OFFSET 0.708757 -12.982077 0.567790
				CHANNELS 3 Xrotation Yrotation Zrotation
				JOINT LeftFoot
				{
					OFFSET -0.708756 -10.717838 -2.184338
					CHANNELS 3 Xrotation Yrotation Zrotation
					JOINT LeftToeBase
					{
						OFFSET 0.108149 -7.191104 7.560241
						CHANNELS 3 Xrotation Yrotation Zrotation
						JOINT LeftToe_End
						{
							OFFSET 0.070230 0.081724 4.490308
							CHANNELS 3 Xrotation Yrotation Zrotation
							End Site
							{
								OFFSET 0 0 0
							}
						}
					}
				}
			}
		}
	}
	JOINT RightUpLeg_virtual
	{
		OFFSET 0.000000 0.000000 0.000000
		CHANNELS 3 Xrotation Yrotation Zrotation
		JOINT RightUpLeg
		{
			OFFSET -10.205400 -3.823500 0.005500
			CHANNELS 3 Xrotation Yrotation Zrotation
			JOINT RightLeg
			{
				OFFSET -0.708756 -12.982134 0.610632
				CHANNELS 3 Xrotation Yrotation Zrotation
				JOINT RightFoot
				{
					OFFSET 0.708754 -10.717769 -1.945823
					CHANNELS 3 Xrotation Yrotation Zrotation
					JOINT RightToeBase
					{
						OFFSET -0.108140 -7.191069 7.372968
						CHANNELS 3 Xrotation Yrotation Zrotation
						JOINT RightToe_End
						{
							OFFSET -0.070227 0.081735 4.479403
							CHANNELS 3 Xrotation Yrotation Zrotation
							End Site
							{
								OFFSET 0 0 0
							}
						}
					}
				}
			}
		}
	}
	JOINT Spine_virtual
	{
		OFFSET 0.000000 0.000000 0.000000
		CHANNELS 3 Xrotation Yrotation Zrotation
		JOINT Spine
		{
			OFFSET 0.000000 6.876099 0.125700
			CHANNELS 3 Xrotation Yrotation Zrotation
			JOINT Spine1
			{
				OFFSET 0.000000 5.730043 0.104720
				CHANNELS 3 Xrotation Yrotation Zrotation
				JOINT Spine1_split
				{
					OFFSET 0.000000 5.730043 0.104720
					CHANNELS 3 Xrotation Yrotation Zrotation
					JOINT Spine2
					{
						OFFSET 0.000000 5.730043 0.104720
						CHANNELS 3 Xrotation Yrotation Zrotation
						JOINT Neck_virtual
						{
							OFFSET 0.000000 0.000000 0.000000
							CHANNELS 3 Xrotation Yrotation Zrotation
							JOINT Neck
							{
								OFFSET 0.000000 10.314075 0.188496
								CHANNELS 3 Xrotation Yrotation Zrotation
								JOINT Head
								{
									OFFSET 0.000000 7.643700 -2.377400
									CHANNELS 3 Xrotation Yrotation Zrotation
									JOINT HeadTop_End
									{
										OFFSET 0.000000 43.788605 -13.619600
										CHANNELS 3 Xrotation Yrotation Zrotation
										End Site
										{
											OFFSET 0 0 0
										}
									}
								}
							}
						}
						JOINT LeftShoulder_virtual
						{
							OFFSET 0.000000 0.000000 0.000000
							CHANNELS 3 Xrotation Yrotation Zrotation
							JOINT LeftShoulder
							{
								OFFSET 2.196100 4.412489 0.087492
								CHANNELS 3 Xrotation Yrotation Zrotation
								JOINT LeftShoulder_split
								{
									OFFSET 2.196100 4.412489 0.087492
									CHANNELS 3 Xrotation Yrotation Zrotation
									JOINT LeftArm
									{
										OFFSET 8.771219 -2.981674 -0.026999
										CHANNELS 3 Xrotation Yrotation Zrotation
										JOINT LeftForeArm
										{
											OFFSET 8.512804 0.000000 -0.000000
											CHANNELS 3 Xrotation Yrotation Zrotation
											JOINT LeftHand
											{
												OFFSET 18.484802 0.000000 -0.000000
												CHANNELS 3 Xrotation Yrotation Zrotation
												End Site
												{
													OFFSET 0 0 0
												}
											}
										}
									}
								}
							}
						}
						JOINT RightShoulder_virtual
						{
							OFFSET 0.000000 0.000000 0.000000
							CHANNELS 3 Xrotation Yrotation Zrotation
							JOINT RightShoulder
							{
								OFFSET -2.196100 4.412496 0.070690
								CHANNELS 3 Xrotation Yrotation Zrotation
								JOINT RightShoulder_split
								{
									OFFSET -2.196100 4.412496 0.070690
									CHANNELS 3 Xrotation Yrotation Zrotation
									JOINT RightArm
									{
										OFFSET -8.771282 -2.981682 -0.094208
										CHANNELS 3 Xrotation Yrotation Zrotation
										JOINT RightForeArm
										{
											OFFSET -8.494598 0.000000 0.000000
											CHANNELS 3 Xrotation Yrotation Zrotation
											JOINT RightHand
											{
												OFFSET -18.483803 0.000000 0.000001
												CHANNELS 3 Xrotation Yrotation Zrotation
												End Site
												{
													OFFSET 0 0 0
												}
											}
										}
									}
								}
							}
						}
					}
				}
			}
		}
	}
}
MOTION
Frames: 4
Frame Time: 0.03333333
4.061302 31.853687 -2.040415 0.000000 0.000000 0.000000 10.462667 -31.399957 -15.815675 -28.420851 -4.655058 28.252934 44.137666 3.028917 10.558699 -20.782304 31.862751 -18.034430 -1.773778 0.451833 0.499896 0.000000 0.000000 0.000000 12.538749 -29.555567 -16.476735 -24.856464 0.666689 24.897602 9.891017 3.536329 5.600984 3.869785 12.458999 -4.398654 -3.062323 1.734926 -0.115870 0.000000 0.000000 0.000000 8.220139 -32.741741 -16.952330 17.331725 -5.345390 13.030340 14.094360 -0.550333 10.483003 1.552222 -1.171988 0.619502 0.000000 0.000000 0.000000 12.847601 -0.617214 9.419183 -9.194343 -6.013376 3.076226 36.708486 -14.434244 30.353023 0.000000 0.000000 0.000000 14.338983 -1.218330 9.637945 2.383707 -20.063030 -11.586257 1.018876 -1.366850 -0.416055 -35.641939 -26.706851 -56.902098 -1.008305 -14.796109 -1.359367 0.000000 0.000000 0.000000 12.258330 -1.029880 9.939693 2.391585 6.570647 11.290193 -4.553562 2.592464 -0.483774 0.264087 40.641074 26.834736 1.802977 22.792719 1.305683 0.000000 0.000000 0.000000 
4.004447 31.849623 -2.034767 0.000000 0.000000 0.000000 10.429790 -31.106816 -15.805452 -28.647738 -4.577463 28.315203 44.215189 2.940234 10.599218 -20.613419 31.559613 -18.081850 -1.714892 0.456019 0.470720 0.000000 0.000000 0.000000 12.508073 -29.176898 -16.466842 -24.910745 0.579550 24.914035 10.062406 3.476466 5.570899 3.793156 12.325251 -4.530354 -3.027003 1.680738 -0.096612 0.000000 0.000000 0.000000 8.180744 -32.386151 -16.945681 17.225778 -5.417400 13.165897 14.004515 -0.611210 10.538870 1.535742 -1.182753 0.615184 0.000000 0.000000 0.000000 12.759653 -0.654897 9.470637 -9.077525 -5.960213 3.110338 36.870720 -14.580203 30.373073 0.000000 0.000000 0.000000 14.226678 -1.252372 9.672945 2.361150 -20.084537 -11.700179 0.976352 -1.402642 -0.385371 -35.331373 -27.039211 -57.177061 -1.099983 -14.977746 -1.388280 0.000000 0.000000 0.000000 12.172568 -1.065422 9.981603 2.525242 6.791260 10.759639 -4.454344 2.663530 -0.549913 0.614493 40.398557 27.101774 1.779495 23.292888 1.227721 0.000000 0.000000 0.000000 
3.942725 31.853617 -2.026033 0.000000 0.000000 0.000000 10.382061 -30.726012 -15.786220 -28.835006 -4.531717 28.338294 44.221534 2.844911 10.653609 -20.408002 31.219029 -18.148914 -1.634272 0.458336 0.422902 0.000000 0.000000 0.000000 12.466104 -28.710632 -16.444505 -24.921800 0.521084 24.924025 10.203149 3.405624 5.517917 3.700532 12.151920 -4.687421 -2.948071 1.614114 -0.047251 0.000000 0.000000 0.000000 8.123373 -31.971924 -16.928597 17.111881 -5.479846 13.306412 13.909871 -0.669373 10.602747 1.513831 -1.199795 0.620940 0.000000 0.000000 0.000000 12.670885 -0.692075 9.531416 -8.970910 -5.922410 3.148008 37.035236 -14.741575 30.379705 0.000000 0.000000 0.000000 14.109667 -1.281940 9.716613 2.343457 -20.091579 -11.806295 0.944402 -1.438317 -0.364336 -34.927303 -27.315127 -57.444015 -1.199518 -15.167137 -1.420052 0.000000 0.000000 0.000000 12.084422 -1.100073 10.029248 2.669714 6.976195 10.224469 -4.351498 2.716225 -0.617020 0.967170 40.203054 27.368443 1.761428 23.807294 1.158595 0.000000 0.000000 0.000000 
3.877192 31.863400 -2.013603 0.000000 0.000000 0.000000 10.317859 -30.274199 -15.770731 -28.967345 -4.524429 28.337492 44.177824 2.754181 10.712262 -20.176766 30.871301 -18.255349 -1.548775 0.459171 0.362953 0.000000 0.000000 0.000000 12.406109 -28.165733 -16.426453 -24.880583 0.493450 24.932347 10.303668 3.313948 5.447896 3.575251 11.934437 -4.898094 -2.785091 1.539087 0.024977 0.000000 0.000000 0.000000 8.055305 -31.505566 -16.908687 16.987758 -5.535442 13.456861 13.809913 -0.725335 10.674390 1.486025 -1.221239 0.612371 0.000000 0.000000 0.000000 12.580924 -0.729852 9.602028 -8.878167 -5.900864 3.185983 37.209904 -14.911604 30.372550 0.000000 0.000000 0.000000 13.987842 -1.307982 9.769796 2.333277 -20.079153 -11.893455 0.922987 -1.472575 -0.358593 -34.442537 -27.542004 -57.699232 -1.302531 -15.358357 -1.452263 0.000000 0.000000 0.000000 11.995430 -1.134766 10.082543 2.824404 7.121778 9.678999 -4.260672 2.756496 -0.671987 1.309631 40.050740 27.636774 1.747278 24.328692 1.102176 0.000000 0.000000 0.000000 
